<svg viewBox="0 0 753.96 690.31" xmlns:xlink="http://www.w3.org/1999/xlink" xmlns="http://www.w3.org/2000/svg" data-name="Layer 1" id="Layer_1">
  <defs>
    <style>
      .cls-1 {
        fill: url(#linear-gradient-15);
      }

      .cls-2 {
        fill: url(#linear-gradient-13);
      }

      .cls-3 {
        fill: url(#linear-gradient-2);
      }

      .cls-4 {
        fill: url(#linear-gradient-10);
      }

      .cls-5 {
        fill: url(#linear-gradient-12);
      }

      .cls-6 {
        fill: #fff;
      }

      .cls-7 {
        fill: url(#linear-gradient-4);
      }

      .cls-8 {
        fill: url(#radial-gradient-5);
      }

      .cls-9 {
        fill: url(#radial-gradient);
      }

      .cls-10 {
        fill: url(#radial-gradient-3);
      }

      .cls-11 {
        fill: url(#linear-gradient-3);
      }

      .cls-12 {
        fill: url(#linear-gradient-5);
      }

      .cls-13 {
        fill: url(#linear-gradient-22);
      }

      .cls-14 {
        fill: url(#linear-gradient-8);
      }

      .cls-15 {
        fill: url(#radial-gradient-2);
      }

      .cls-16 {
        fill: url(#linear-gradient-14);
      }

      .cls-17 {
        fill: url(#linear-gradient-20);
      }

      .cls-18 {
        fill: url(#radial-gradient-4);
      }

      .cls-19 {
        fill: url(#linear-gradient-17);
      }

      .cls-20 {
        fill: url(#linear-gradient-7);
      }

      .cls-21 {
        fill: url(#linear-gradient-9);
      }

      .cls-22 {
        fill: url(#linear-gradient-11);
      }

      .cls-23 {
        fill: url(#linear-gradient-19);
      }

      .cls-24 {
        fill: url(#linear-gradient-6);
      }

      .cls-25 {
        fill: url(#linear-gradient-21);
      }

      .cls-26 {
        fill: url(#linear-gradient-16);
      }

      .cls-27 {
        fill: url(#linear-gradient);
      }

      .cls-28 {
        fill: url(#linear-gradient-18);
      }
    </style>
    <linearGradient gradientUnits="userSpaceOnUse" y2="411.35" x2="236.2" y1="370.57" x1="208.6" id="linear-gradient">
      <stop stop-color="#b3bfcf" offset=".04"></stop>
      <stop stop-color="#8ea0b7" offset=".47"></stop>
      <stop stop-color="#7087a5" offset=".88"></stop>
    </linearGradient>
    <linearGradient gradientUnits="userSpaceOnUse" y2="479.58" x2="286.53" y1="567.23" x1="272.46" id="linear-gradient-2">
      <stop stop-color="#13274c" offset=".12"></stop>
      <stop stop-color="#fff" offset="1"></stop>
    </linearGradient>
    <linearGradient gradientUnits="userSpaceOnUse" y2="388.18" x2="376.28" y1="536.9" x1="218.68" id="linear-gradient-3">
      <stop stop-color="#13274c" offset=".28"></stop>
      <stop stop-color="#fff" offset="1"></stop>
    </linearGradient>
    <linearGradient gradientUnits="userSpaceOnUse" y2="393.83" x2="338.85" y1="567.51" x1="139.24" id="linear-gradient-4">
      <stop stop-color="#051430" offset="0"></stop>
      <stop stop-color="#122848" offset=".38"></stop>
      <stop stop-color="#142b4b" offset="1"></stop>
    </linearGradient>
    <linearGradient xlink:href="#linear-gradient-4" gradientTransform="translate(-2946.25) rotate(-180) scale(1 -1)" y2="393.83" x2="-3361.36" y1="567.51" x1="-3560.97" id="linear-gradient-5"></linearGradient>
    <linearGradient gradientUnits="userSpaceOnUse" y2="574.55" x2="110.8" y1="324.37" x1="382.04" id="linear-gradient-6">
      <stop stop-color="#000" offset=".31"></stop>
      <stop stop-color="#272f3a" offset=".51"></stop>
      <stop stop-color="#5b6e86" offset=".81"></stop>
      <stop stop-color="#7087a5" offset=".94"></stop>
    </linearGradient>
    <radialGradient gradientUnits="userSpaceOnUse" r="180.07" fy="325.55" fx="235.62" cy="325.55" cx="235.62" id="radial-gradient">
      <stop stop-color="#c3cfde" offset=".22"></stop>
      <stop stop-color="#fff" offset="1"></stop>
    </radialGradient>
    <linearGradient gradientUnits="userSpaceOnUse" y2="134.49" x2="372.9" y1="357.88" x1="249.09" id="linear-gradient-7">
      <stop stop-color="#0d64e3" offset=".09"></stop>
      <stop stop-color="#11c2f9" offset=".85"></stop>
    </linearGradient>
    <linearGradient gradientUnits="userSpaceOnUse" y2="357.28" x2="320.86" y1="538.87" x1="293.77" id="linear-gradient-8">
      <stop stop-color="#1e2f57" offset="0"></stop>
      <stop stop-color="#9faec3" offset=".57"></stop>
      <stop stop-color="#fff" offset=".89"></stop>
    </linearGradient>
    <linearGradient gradientUnits="userSpaceOnUse" y2="64.77" x2="473.83" y1="355.26" x1="258.66" id="linear-gradient-9">
      <stop stop-color="#0d64e3" offset="0"></stop>
      <stop stop-color="#11c2f9" offset="1"></stop>
    </linearGradient>
    <radialGradient gradientUnits="userSpaceOnUse" r="181.37" fy="469.63" fx="142.73" cy="469.63" cx="142.73" id="radial-gradient-2">
      <stop stop-color="#fff" offset=".31"></stop>
      <stop stop-color="#dae0e8" offset=".47"></stop>
      <stop stop-color="#8ea0b8" offset=".83"></stop>
      <stop stop-color="#7087a5" offset="1"></stop>
    </radialGradient>
    <linearGradient gradientUnits="userSpaceOnUse" y2="338.28" x2="231.64" y1="377" x1="258.5" id="linear-gradient-10">
      <stop stop-color="#000" offset=".13"></stop>
      <stop stop-color="#bad0f3" offset=".99"></stop>
    </linearGradient>
    <linearGradient gradientUnits="userSpaceOnUse" y2="507.72" x2="374.77" y1="572.63" x1="73.45" id="linear-gradient-11">
      <stop stop-color="#b2bece" offset=".02"></stop>
      <stop stop-color="#000" offset=".1"></stop>
      <stop stop-color="#778091" offset="1"></stop>
    </linearGradient>
    <radialGradient gradientUnits="userSpaceOnUse" gradientTransform="translate(259.96 -81.83) rotate(51.13) scale(1 .5)" r="331.03" fy="307.32" fx="375.5" cy="307.32" cx="375.5" id="radial-gradient-3">
      <stop stop-color="#fff" offset="0"></stop>
      <stop stop-color="#d1d8e4" offset=".17"></stop>
      <stop stop-color="#a9b7cd" offset=".34"></stop>
      <stop stop-color="#91a3bf" offset=".47"></stop>
      <stop stop-color="#899cba" offset=".56"></stop>
      <stop stop-color="#fff" offset=".81"></stop>
    </radialGradient>
    <linearGradient gradientUnits="userSpaceOnUse" y2="408.77" x2="520.19" y1="370.85" x1="544.5" id="linear-gradient-12">
      <stop stop-color="#495a72" offset=".04"></stop>
      <stop stop-color="#15264f" offset=".99"></stop>
    </linearGradient>
    <linearGradient gradientUnits="userSpaceOnUse" y2="483.58" x2="263.99" y1="571.82" x1="678.57" id="linear-gradient-13">
      <stop stop-color="#15264f" offset="0"></stop>
      <stop stop-color="#000" offset=".2"></stop>
      <stop stop-color="#778091" offset="1"></stop>
    </linearGradient>
    <radialGradient gradientUnits="userSpaceOnUse" gradientTransform="translate(219.32 -82.58) rotate(28.88) scale(1 .64)" r="138.1" fy="468.72" fx="596.82" cy="468.72" cx="596.82" id="radial-gradient-4">
      <stop stop-color="#546b85" offset=".26"></stop>
      <stop stop-color="#4b627d" offset=".41"></stop>
      <stop stop-color="#35496a" offset=".63"></stop>
      <stop stop-color="#15264f" offset=".9"></stop>
    </radialGradient>
    <linearGradient gradientUnits="userSpaceOnUse" y2="570.93" x2="677.13" y1="367.55" x1="543.44" id="linear-gradient-14">
      <stop stop-color="#495a72" offset=".02"></stop>
      <stop stop-color="#dae2f0" offset=".54"></stop>
      <stop stop-color="#15264f" offset=".99"></stop>
    </linearGradient>
    <linearGradient gradientUnits="userSpaceOnUse" y2="474.1" x2="473.67" y1="556.93" x1="555.51" id="linear-gradient-15">
      <stop stop-color="#13274c" offset=".17"></stop>
      <stop stop-color="#fff" offset="1"></stop>
    </linearGradient>
    <linearGradient gradientUnits="userSpaceOnUse" y2="440.12" x2="463.34" y1="525.43" x1="445.53" id="linear-gradient-16">
      <stop stop-color="#07173e" offset="0"></stop>
      <stop stop-color="#394e6d" offset="1"></stop>
    </linearGradient>
    <linearGradient gradientUnits="userSpaceOnUse" y2="338.7" x2="522.1" y1="376.08" x1="495.99" id="linear-gradient-17">
      <stop stop-color="#000" offset="0"></stop>
      <stop stop-color="#bad0f3" offset="1"></stop>
    </linearGradient>
    <linearGradient gradientUnits="userSpaceOnUse" y2="72.26" x2="344.07" y1="338.76" x1="525.6" id="linear-gradient-18">
      <stop stop-color="#bad0f3" offset=".01"></stop>
      <stop stop-color="#0221ab" offset=".09"></stop>
      <stop stop-color="#0741c6" offset=".19"></stop>
      <stop stop-color="#0b5adb" offset=".29"></stop>
      <stop stop-color="#0d64e3" offset=".34"></stop>
      <stop stop-color="#11c2f9" offset=".85"></stop>
    </linearGradient>
    <linearGradient gradientUnits="userSpaceOnUse" gradientTransform="translate(-2946.25) rotate(-180) scale(1 -1)" y2="72.26" x2="-3356.14" y1="338.76" x1="-3174.61" id="linear-gradient-19">
      <stop stop-color="#bad0f3" offset=".01"></stop>
      <stop stop-color="#0d64e3" offset=".15"></stop>
      <stop stop-color="#11c2f9" offset=".85"></stop>
    </linearGradient>
    <linearGradient xlink:href="#linear-gradient-6" y2="442.92" x2="628.99" y1="442.92" x1="376.98" id="linear-gradient-20"></linearGradient>
    <linearGradient gradientUnits="userSpaceOnUse" y2="136.68" x2="370.28" y1="356.66" x1="511.08" id="linear-gradient-21">
      <stop stop-color="#0221ab" offset=".01"></stop>
      <stop stop-color="#0d64e3" offset=".44"></stop>
      <stop stop-color="#11c2f9" offset=".85"></stop>
    </linearGradient>
    <linearGradient xlink:href="#linear-gradient-4" y2="389.83" x2="381.06" y1="539.2" x1="536.17" id="linear-gradient-22"></linearGradient>
    <radialGradient gradientUnits="userSpaceOnUse" gradientTransform="translate(474.7 495.3) rotate(122.85) scale(1 .74)" r="145.9" fy="433.33" fx="133.19" cy="433.33" cx="133.19" id="radial-gradient-5">
      <stop stop-color="#fff" offset=".31"></stop>
      <stop stop-color="#dae0e8" offset=".44"></stop>
      <stop stop-color="#8ea0b8" offset=".74"></stop>
      <stop stop-color="#7087a5" offset=".88"></stop>
    </radialGradient>
  </defs>
  <polygon points="683.46 574.64 376.99 510.61 70.51 574.64 208.04 367.46 219.75 385.04 219.75 457.96 534.22 457.96 534.22 385.04 545.93 367.46 683.46 574.64"></polygon>
  <g>
    <polygon points="234.08 406.58 210.36 370.95 209.07 372.9 232.83 408.59 234.08 406.58" class="cls-27"></polygon>
    <polygon points="200.61 544.22 210.42 542.17 376.98 386.79 376.98 379.69 200.61 544.22" class="cls-3"></polygon>
    <polygon points="210.42 542.17 214.91 541.23 376.98 390.04 376.98 386.79 210.42 542.17" class="cls-11"></polygon>
    <polygon points="131.53 558.65 200.61 544.22 376.98 379.69 376.98 330.55 376.98 330.55 131.53 558.65" class="cls-7"></polygon>
    <polygon points="622.44 558.65 553.35 544.22 376.98 379.69 376.98 330.55 376.98 330.55 622.44 558.65" class="cls-12"></polygon>
    <polygon points="376.98 182.98 257.71 374.8 256.46 376.81 234.83 411.59 174.47 508.68 124.97 560.02 124.97 560.02 376.98 325.83 376.98 319.79 187.65 495.72 376.98 191.22 376.98 182.98" class="cls-6"></polygon>
    <polygon points="124.97 560.02 131.53 558.65 376.98 330.55 376.98 325.83 376.98 325.83 124.97 560.02" class="cls-24"></polygon>
    <polygon points="376.98 319.79 376.86 319.67 376.98 319.79 376.98 191.22 187.65 495.72 376.98 319.79" class="cls-9"></polygon>
    <polygon points="171.79 506.56 124.97 560.02 174.47 508.68 234.83 411.59 232.83 408.59 171.79 506.56"></polygon>
    <polygon points="376.98 177.26 376.75 176.9 376.98 177.26 376.98 120.01 232.72 337.28 255.74 371.84 376.98 177.26" class="cls-20"></polygon>
    <polygon points="214.91 541.23 376.98 507.37 376.98 390.04 214.91 541.23" class="cls-14"></polygon>
    <polygon points="255.74 371.84 257.71 374.8 376.98 182.98 376.98 177.26 255.74 371.84" class="cls-21"></polygon>
    <polygon points="254.49 373.85 234.08 406.58 232.83 408.59 234.83 411.59 256.46 376.81 254.49 373.85"></polygon>
    <polygon points="254.49 373.85 256.46 376.81 257.71 374.8 255.74 371.84 254.49 373.85"></polygon>
    <polygon points="208.93 368.82 207.64 370.76 75.09 570.44 78.35 569.75 209.07 372.9 210.36 370.95 208.93 368.82" class="cls-15"></polygon>
    <polygon points="232.72 337.28 231.29 335.13 230 337.08 231.43 339.22 254.49 373.85 255.74 371.84 232.72 337.28" class="cls-4"></polygon>
    <polygon points="214.91 541.23 210.42 542.17 200.61 544.22 131.53 558.65 124.97 560.02 124.97 560.02 124.97 560.02 124.97 560.02 78.35 569.75 75.09 570.44 73.77 572.42 77.03 571.74 122.59 562.22 129.15 560.85 198.24 546.42 208.05 544.37 212.55 543.43 376.98 509.08 376.98 507.37 214.91 541.23" class="cls-22"></polygon>
    <polygon points="377.11 319.67 376.98 319.79 566.32 495.72 376.98 191.22 376.98 319.79 377.11 319.67" class="cls-10"></polygon>
    <polygon points="579.49 508.68 628.99 560.02 582.17 506.56 521.13 408.59 519.13 411.59 579.49 508.68"></polygon>
    <polygon points="519.88 406.58 499.48 373.85 497.5 376.81 519.13 411.59 521.13 408.59 519.88 406.58"></polygon>
    <polygon points="498.23 371.84 496.25 374.8 497.5 376.81 499.48 373.85 498.23 371.84"></polygon>
    <polygon points="521.13 408.59 544.9 372.9 543.61 370.95 519.88 406.58 521.13 408.59" class="cls-5"></polygon>
    <polygon points="376.98 177.26 376.98 182.98 496.25 374.8 498.23 371.84 376.98 177.26"></polygon>
    <polygon points="678.87 570.44 675.61 569.75 628.99 560.02 628.99 560.02 628.99 560.02 628.99 560.02 622.44 558.65 553.35 544.22 543.55 542.17 539.05 541.23 376.98 507.37 376.98 509.08 541.42 543.43 545.91 544.37 555.72 546.42 624.81 560.85 631.37 562.22 676.93 571.74 680.19 572.42 678.87 570.44" class="cls-2"></polygon>
    <polygon points="521.13 408.59 582.17 506.56 628.99 560.02 628.99 560.02 675.61 569.75 544.9 372.9 521.13 408.59" class="cls-18"></polygon>
    <polygon points="579.49 508.68 519.13 411.59 497.5 376.81 496.25 374.8 376.98 182.98 376.98 191.22 566.32 495.72 376.98 319.79 376.98 325.83 376.98 325.83 628.99 560.02 628.99 560.02 579.49 508.68" class="cls-6"></polygon>
    <polygon points="546.32 370.76 545.03 368.82 543.61 370.95 544.9 372.9 675.61 569.75 678.87 570.44 546.32 370.76" class="cls-16"></polygon>
    <polygon points="376.98 379.69 376.98 386.79 543.55 542.17 553.35 544.22 376.98 379.69" class="cls-1"></polygon>
    <polygon points="376.98 507.37 539.05 541.23 376.98 390.04 376.98 507.37" class="cls-26"></polygon>
    <polygon points="522.67 335.13 521.24 337.28 498.23 371.84 499.48 373.85 522.53 339.22 523.96 337.08 522.67 335.13" class="cls-19"></polygon>
    <polygon points="376.98 115.67 376.98 120.01 521.24 337.28 522.67 335.13 376.98 115.67" class="cls-28"></polygon>
    <polygon points="376.98 115.67 376.98 120.01 232.72 337.28 231.29 335.13 376.98 115.67" class="cls-23"></polygon>
    <polygon points="376.98 325.83 376.98 330.55 376.98 330.55 622.44 558.65 628.99 560.02 376.98 325.83" class="cls-17"></polygon>
    <polygon points="377.21 176.9 376.98 177.26 498.23 371.84 521.24 337.28 376.98 120.01 376.98 177.26 377.21 176.9" class="cls-25"></polygon>
    <polygon points="376.98 386.79 376.98 390.04 539.05 541.23 543.55 542.17 376.98 386.79" class="cls-13"></polygon>
    <polygon points="171.79 506.56 232.83 408.59 209.07 372.9 78.35 569.75 124.97 560.02 124.97 560.02 171.79 506.56" class="cls-8"></polygon>
  </g>
</svg>